<?xml version="1.0" encoding="utf-8"?>
<!-- Generator: Adobe Illustrator 25.2.1, SVG Export Plug-In . SVG Version: 6.00 Build 0)  -->
<svg version="1.0" id="Warstwa_1" xmlns="http://www.w3.org/2000/svg" xmlns:xlink="http://www.w3.org/1999/xlink" x="0px" y="0px"
	 viewBox="0 0 510 152.9" style="enable-background:new 0 0 510 152.9;" xml:space="preserve">
<style type="text/css">
	.st0{fill:#E52A18;}
	.st1{fill:#FFFFFF;}
</style>
<g>
	<polygon class="st0" points="214.4,96.4 208.5,96.4 207.7,95.9 0,117.7 0,152.9 202.1,131.7 202.1,130.7 211.9,130 217.9,126.9 
		221.2,118.8 221.7,107.6 218.1,99.5 	"/>
	<polygon class="st0" points="394.1,68.6 392.4,64.9 386.8,56.3 386.8,50.7 389.6,47.7 392.4,39.6 385.7,35.4 384.9,34.4 0,74.8 
		0,110 	"/>
	<polygon class="st0" points="306.2,35.1 298.5,0.8 0,32.1 0,67.2 	"/>
</g>
<g>
	<path class="st1" d="M61.6,59.3l3.4-0.4v1.6l-19.6,2.1V61l3.2-0.3L40,44.7v16.8l3.5-0.4v1.6l-18.6,2v-1.6l3.5-0.4v-32l-3.5,0.4
		v-1.6l18.6-2v1.6L40,29.5V44l11.6-13.2c0.7-0.8,1.2-1.5,1.2-2c0-0.5-0.7-0.7-2.3-0.5l-3.1,0.3v-1.6l14.8-1.6v1.6l-2.1,0.2
		c-3.3,0.4-3.6,0.6-6.3,3.7l-4.7,5.3L61.6,59.3z"/>
	<path class="st1" d="M97,27.1c3.2,3.1,4.7,7,4.7,12.2c0,10.3-8.3,19.1-19,20.3c-5.5,0.6-10.7-1.1-14.3-4.6c-3.2-3.1-4.7-7-4.7-12
		c0-4.9,1.6-9.3,4.7-12.9c3.7-4.3,8.8-7,14.2-7.6C88.3,21.9,93.3,23.6,97,27.1z M76.3,47.4c0,3.8,0.5,6.3,1.5,8.1c1,1.6,3,2.5,5,2.3
		c2-0.2,4-1.6,5-3.4c1-2,1.5-4.5,1.5-8.4V34.7c0-3.9-0.5-6.3-1.5-8.1c-1-1.6-3-2.5-5-2.3c-2,0.2-4,1.6-5,3.4c-1,2-1.5,4.6-1.5,8.4
		V47.4z"/>
	<path class="st1" d="M120.4,53.1l2.4-0.3c5-0.6,7.8-1.9,9.8-4.5c1.7-2.3,2.7-4.3,3.3-7.2l1.7-0.2l-0.7,12l-31.7,3.3v-1.6l3.5-0.4
		v-32l-3.5,0.4V21l20.3-2.1v1.6l-5.1,0.5V53.1z"/>
	<path class="st1" d="M144.1,18.6l-3.5,0.4v-1.6l31.6-3.3v9.1l-1.8,0.2c-1.2-5.2-4.9-7.2-11.3-6.4l-3.3,0.3v15.2l1.8-0.2
		c4.1-0.5,5.9-2.6,5.9-6.9l1.8-0.2v14.4l-1.8,0.2c-0.3-4.7-2-6.3-6-5.8l-1.6,0.2v15.3l4.7-0.5c6.6-0.5,10-3.9,11.2-11.3l1.7-0.2
		v11.7l-32.8,3.4V51l3.5-0.4V18.6z"/>
	<path class="st1" d="M213.8,43.3l3.4-0.4v1.6l-19.6,2.1V45l3.2-0.3l-8.6-15.9v16.8l3.5-0.4v1.6l-18.6,2v-1.6l3.5-0.4v-32l-3.5,0.4
		v-1.6l18.6-2v1.6l-3.5,0.4v14.6l11.6-13.2c0.7-0.8,1.2-1.5,1.2-2c0-0.5-0.7-0.7-2.3-0.5l-3.1,0.3v-1.6l14.8-1.6v1.6l-2.1,0.2
		c-3.3,0.4-3.6,0.6-6.3,3.7l-4.7,5.3L213.8,43.3z"/>
	<path class="st1" d="M249,41.2l-1.7,0.2l-1.1-2.7c-4.1,3.4-6.3,4.4-10.9,4.9C224,44.7,216,38,216,27.4c0-11,8-19.7,19.3-20.9
		c4.3-0.5,6.9,0.2,9.9,2.4l1.5-2.7l1.7-0.2l0.2,10.2l-1.7,0.2c-0.6-2-1.1-3-1.8-4.2c-1.7-2.9-4.9-4.4-8.3-4.1
		c-5.3,0.6-8.2,5.3-8.2,13.5V30c0,4.2,0.5,6.5,1.7,8.6c1.4,2.3,3.7,3.3,6.7,3c3.4-0.4,6-2.1,8.3-5.4c1.5-2.1,2.2-3.6,2.9-6.1
		l1.7-0.2L249,41.2z"/>
	<path class="st1" d="M275.9,29.2c0,6.3-0.9,9.3-3.5,12.1c-2.1,2.2-6,3.8-9.8,4.3c-6.2,0.6-10.5-2.1-10.5-6.6c0-3,2.2-5.3,5.2-5.6
		c2.8-0.3,4.8,1.6,4.8,4.6c0,1.4-0.5,2.9-1.5,3.9c-0.9,1-0.9,1-0.9,1.4c0,0.5,0.6,0.8,1.4,0.7c1.3-0.1,2.3-1.1,2.8-2.8
		c0.3-1.1,0.4-2.3,0.4-4.8V5.9l-3.5,0.4V4.7l18.7-2v1.6l-3.5,0.4V29.2z"/>
	<path class="st1" d="M288.1,27.6l-2.2,6c-0.1,0.4-0.2,0.8-0.2,1c0,0.8,0.6,1.1,2.2,0.9l1.4-0.1v1.6L279.2,38v-1.6l1.3-0.1
		c2.2-0.3,3.1-1.1,4.1-3.8L296.4,1l4-0.4l13.8,32.2l3-0.3V34l-19.1,2v-1.6l3.7-0.4l-3.2-7.6L288.1,27.6z M298,25l-4.7-11l-4.5,12
		L298,25z"/>
</g>
<g>
	<path class="st1" d="M53.2,72.4l-10.7,33.2l-2.4,0.2l-10.3-31v25.4c-0.2,4.1,0.5,4.9,3.6,4.6l0.8-0.1v1.6l-10.6,1.1V106l0.7-0.1
		c3.1-0.4,3.8-1.3,3.6-5.4v-27l-3.5,0.4v-1.6l16.3-1.7l5.8,17.1l5.8-18.3l15.9-1.7v1.6l-3.5,0.4v32l3.5-0.4v1.6l-19.3,2v-1.6
		l4.2-0.4V72.4z"/>
	<path class="st1" d="M79.3,92.2l-2.2,6c-0.1,0.4-0.2,0.8-0.2,1c0,0.8,0.6,1.1,2.2,0.9l1.4-0.1v1.6l-10.2,1.1v-1.6l1.3-0.1
		c2.2-0.3,3.1-1.1,4.1-3.8l11.9-31.6l4-0.4l13.8,32.2l3-0.3v1.6l-19.1,2v-1.6l3.7-0.4l-3.2-7.6L79.3,92.2z M89.2,89.6l-4.7-11
		l-4.5,12L89.2,89.6z"/>
	<path class="st1" d="M114.4,66.5v24.9c-0.2,4.1,0.5,4.9,3.6,4.6l0.8-0.1v1.6l-10.6,1.1v-1.6l0.7-0.1c3.1-0.4,3.8-1.3,3.6-5.4V67.7
		c0.1-2.6-0.3-3-2.3-2.9l-2.1,0.2v-1.6l17.5-1.8l12.2,18.3v-13c0.2-4.1-0.5-4.9-3.6-4.6l-0.8,0.1v-1.6l10.6-1.1v1.6l-0.7,0.1
		c-3.1,0.4-3.8,1.3-3.6,5.4v28.6l-5.6,0.6L114.4,66.5z"/>
	<path class="st1" d="M179,91.3l-1.7,0.2l-1.1-2.7c-4.1,3.4-6.3,4.4-10.9,4.9c-11.3,1.2-19.3-5.5-19.3-16.1c0-11,8-19.7,19.3-20.9
		c4.3-0.5,6.9,0.2,9.9,2.4l1.5-2.7l1.7-0.2l0.2,10.2l-1.7,0.2c-0.6-2-1.1-3-1.8-4.2c-1.7-2.9-4.9-4.4-8.3-4.1
		c-5.3,0.6-8.2,5.3-8.2,13.5v8.4c0,4.2,0.5,6.5,1.7,8.6c1.4,2.3,3.7,3.3,6.7,3c3.4-0.4,6-2.1,8.3-5.4c1.5-2.1,2.2-3.6,2.9-6.1
		l1.7-0.2L179,91.3z"/>
	<path class="st1" d="M198.1,87.7l3.5-0.4v1.6l-18.6,2v-1.6l3.5-0.4v-32l-3.5,0.4v-1.6l18.6-2v1.6l-3.5,0.4v14.7l9.2-1V54.7
		l-3.5,0.4v-1.6l18.6-2v1.6l-3.5,0.4v32l3.5-0.4v1.6l-18.6,2v-1.6l3.5-0.4V71l-9.2,1V87.7z"/>
	<path class="st1" d="M229.5,52.3l-3.5,0.4v-1.6l31.6-3.3v9.1l-1.8,0.2c-1.2-5.2-4.9-7.2-11.3-6.4l-3.3,0.3v15.2l1.8-0.2
		c4.1-0.5,5.9-2.6,5.9-6.9l1.8-0.2v14.4l-1.8,0.2c-0.3-4.7-2-6.3-6-5.8l-1.6,0.2v15.3l4.7-0.5c6.6-0.5,10-3.9,11.2-11.3l1.7-0.2
		v11.7l-32.8,3.4v-1.6l3.5-0.4V52.3z"/>
	<path class="st1" d="M288.6,54.2l-1.7,0.2c-0.6-1.9-1.2-3-2.1-4.1c-2.1-2.6-5.5-3.9-9.1-3.5c-3.4,0.4-5.5,2.1-5.5,4.5
		c0,2.2,1.5,3.5,5.2,4.3l6.4,1.4c6.5,1.4,9.1,4.1,9.1,9.8c0,8.1-5.5,14.3-13.5,15.1c-4.1,0.4-7.1-0.5-10.2-3l-1.7,3.3l-1.7,0.2V71.2
		l1.7-0.2c0.7,2.1,1.1,3.1,1.9,4.3c2.2,3.4,6,5.2,10.1,4.7c4.2-0.4,7-2.9,7-6.2c0-2.6-1.5-4-5.2-4.8l-6.6-1.5
		c-6.3-1.5-9.2-4.4-9.2-9.2c0-2.9,1.1-6,3-8.4c2.3-2.9,5.4-4.6,9.4-5c4.1-0.4,7,0.4,9.6,2.7l1.6-3l1.7-0.2V54.2z"/>
	<path class="st1" d="M314.7,75.4l5-0.5v1.6l-21.6,2.3v-1.6l5-0.5v-32l-1.6,0.2c-3.7,0.5-6,3.8-7.1,10.4l-1.7,0.2l0.6-11.3l31.3-3.3
		l0.6,11.2l-1.8,0.2c-1.1-6.3-3.4-9.2-7.1-8.9l-1.6,0.2V75.4z"/>
	<path class="st1" d="M331.2,41.7l-3.5,0.4v-1.6l31.6-3.3v9.1l-1.8,0.2c-1.2-5.2-4.9-7.2-11.3-6.4l-3.3,0.3v15.2l1.8-0.2
		c4.1-0.5,5.9-2.6,5.9-6.9l1.8-0.2v14.4l-1.8,0.2c-0.3-4.7-2-6.3-6-5.8l-1.6,0.2v15.3l4.7-0.5c6.6-0.5,10-3.9,11.2-11.3l1.7-0.2
		v11.7l-32.8,3.4v-1.6l3.5-0.4V41.7z"/>
	<path class="st1" d="M379.3,68.7l3.7-0.4v1.6l-18.8,2v-1.6l3.5-0.4v-32l-3.5,0.4v-1.6l19.7-2.1c6-0.6,7.7-0.6,10.1,0.1
		c2.8,0.8,4.5,3.3,4.5,6.7c0,3.2-1.6,5.9-4.4,7.5c-1.7,1-2.9,1.4-6.3,2.1c6.7,0.2,9.6,2.7,9.6,8.4v2.1c0.1,3.1,0.1,3.3,0.3,3.8
		c0.3,0.7,0.9,1,1.6,0.9c0.6-0.1,1.1-0.2,2.1-0.8l0.7,0.9c-2.8,2.1-5,3-7.7,3.3c-2.7,0.3-5.2-0.4-6.6-1.7c-1.5-1.3-2.1-3.5-2.1-7v-3
		c0-4.5-1.2-6-4.3-5.7l-2.2,0.2V68.7z M382,50.5c3.9-0.4,5-2.2,5-7.6c0-5.5-1.2-7-5-6.6l-2.7,0.3v14.2L382,50.5z"/>
</g>
<g>
	<path class="st1" d="M39.4,137.2c0,3.2,0.4,5.3,1.2,6.7c1.1,1.8,3.5,2.8,6.2,2.6c2.8-0.3,5.2-1.8,6.4-4c1-1.7,1.3-3.2,1.3-6.4
		v-17.6c0.1-4.1-0.5-4.9-3.6-4.6l-0.8,0.1v-1.6l10.6-1.1v1.6l-0.8,0.1c-3.1,0.4-3.7,1.3-3.6,5.4v17.6c0,4.4-0.8,6.9-2.9,9.1
		c-2.4,2.4-5.8,3.7-11.4,4.3c-5.5,0.6-9.1-0.1-11.5-2.1c-2.1-1.7-2.8-4.1-2.8-8.9v-22.1l-3.5,0.4v-1.6l19.2-2v1.6l-4,0.4V137.2z"/>
	<path class="st1" d="M67.7,114.3v24.9c-0.2,4.1,0.5,4.9,3.6,4.6l0.8-0.1v1.6l-10.6,1.1v-1.6l0.7-0.1c3.1-0.4,3.8-1.3,3.6-5.4v-23.9
		c0.1-2.6-0.3-3-2.3-2.9l-2.1,0.2v-1.6l17.5-1.8l12.2,18.3v-13c0.2-4.1-0.5-4.9-3.6-4.6l-0.8,0.1v-1.6l10.6-1.1v1.6l-0.7,0.1
		c-3.1,0.4-3.8,1.3-3.6,5.4v28.6l-5.6,0.6L67.7,114.3z"/>
	<path class="st1" d="M103.2,108.5l-3.5,0.4v-1.6l18.6-2v1.6l-3.5,0.4v32l3.5-0.4v1.6l-18.6,2v-1.6l3.5-0.4V108.5z"/>
	<path class="st1" d="M142.9,136.4l5-0.5v1.6l-21.6,2.3v-1.6l5-0.5v-32l-1.6,0.2c-3.7,0.5-6,3.8-7.1,10.4l-1.7,0.2l0.6-11.3
		l31.3-3.3l0.6,11.2l-1.8,0.2c-1.1-6.3-3.4-9.2-7.1-8.9l-1.6,0.2V136.4z"/>
	<path class="st1" d="M159.3,102.6l-3.5,0.4v-1.6l31.6-3.3v9.1l-1.8,0.2c-1.2-5.2-4.9-7.2-11.3-6.4l-3.3,0.3v15.2l1.8-0.2
		c4.1-0.5,5.9-2.6,5.9-6.9l1.8-0.2v14.4l-1.8,0.2c-0.3-4.7-2-6.3-6-5.8l-1.6,0.2v15.3l4.7-0.5c6.6-0.5,10-3.9,11.2-11.3l1.7-0.2
		v11.7l-32.8,3.4V135l3.5-0.4V102.6z"/>
	<path class="st1" d="M195.8,98.8l-3.5,0.4v-1.6l16.7-1.8c8.1-0.8,11.1-0.5,14.6,1.4c4.4,2.5,6.9,7.6,6.9,14c0,5.2-1.7,9.8-5,13.2
		c-3.8,3.9-8.4,5.8-16.3,6.6l-16.9,1.8v-1.6l3.5-0.4V98.8z M209.2,129.4c6.8-0.7,8.8-4,8.7-14.5v-6.7c-0.1-9.2-2.1-11.8-8.8-10.8
		l-1.6,0.2v32L209.2,129.4z"/>
</g>
</svg>
