<?xml version="1.0" encoding="utf-8"?>
<!-- Generator: Adobe Illustrator 25.2.1, SVG Export Plug-In . SVG Version: 6.00 Build 0)  -->
<svg version="1.0" id="Warstwa_1" xmlns="http://www.w3.org/2000/svg" xmlns:xlink="http://www.w3.org/1999/xlink" x="0px" y="0px"
	 viewBox="0 0 1110 184.1" style="enable-background:new 0 0 1110 184.1;" xml:space="preserve">
<style type="text/css">
	.st0{fill:#E52A18;}
	.st1{fill:#FFFFFF;}
</style>
<polygon class="st0" points="0,112.7 527.9,57.3 515,0 0,54 "/>
<path class="st0" d="M1037.5,25.3c-3.8-5-10-7.7-16.3-7.1L0,125.4v58.7L1019.2,77.1c7.6-0.8,14.2-5.3,17.9-11.9l12.8-23.6
	L1037.5,25.3z"/>
<g>
	<path class="st1" d="M119.6,97.6l5.6-0.6v2.6l-32.8,3.4v-2.6l5.3-0.6L83.4,73.3v28.1l5.8-0.6v2.6l-31.1,3.3v-2.6l5.9-0.6V50
		l-5.9,0.6v-2.6l31.1-3.3v2.6l-5.8,0.6v24.3l19.4-22c1.2-1.4,1.9-2.6,1.9-3.3c0-0.9-1.1-1.1-3.9-0.8l-5.1,0.5V44l24.7-2.6v2.6
		l-3.4,0.4c-5.5,0.7-6.1,1.1-10.5,6.2l-7.8,8.8L119.6,97.6z"/>
	<path class="st1" d="M178.6,43.9c5.4,5.3,7.8,11.6,7.8,20.3c0,17.2-13.8,31.9-31.6,33.8c-9.3,1-17.8-1.8-23.8-7.6
		c-5.3-5.2-7.8-11.7-7.8-20c0-8.2,2.6-15.5,7.8-21.5c6.2-7.2,14.6-11.7,23.7-12.6C164.1,35.3,172.5,38.1,178.6,43.9z M144.1,77.8
		c0,6.3,0.8,10.6,2.5,13.5c1.6,2.7,4.9,4.2,8.3,3.9c3.3-0.4,6.7-2.6,8.3-5.6c1.7-3.3,2.5-7.6,2.5-14V56.6c0-6.4-0.8-10.6-2.5-13.5
		c-1.6-2.7-4.9-4.2-8.3-3.9c-3.3,0.4-6.7,2.6-8.3,5.6c-1.7,3.3-2.5,7.7-2.5,14V77.8z"/>
	<path class="st1" d="M217.7,87.3l4.1-0.4c8.3-1,13-3.1,16.3-7.5c2.9-3.8,4.5-7.2,5.6-12l2.9-0.3l-1.1,20l-53,5.6V90l5.9-0.6V35.9
		l-5.9,0.6v-2.6l33.8-3.6V33l-8.5,0.9V87.3z"/>
	<path class="st1" d="M257.2,29.7l-5.9,0.6v-2.6l52.7-5.5v15.2l-3,0.3c-2-8.6-8.1-12-18.9-10.6l-5.6,0.6V53l3-0.3
		c6.8-0.8,9.8-4.4,9.8-11.6l3-0.3v24l-3,0.3c-0.5-7.8-3.3-10.5-10-9.7l-2.7,0.3v25.5l7.8-0.8c11-0.8,16.7-6.5,18.7-18.9l2.9-0.3
		v19.6l-54.7,5.7v-2.6l5.9-0.6V29.7z"/>
	<path class="st1" d="M373.7,71l5.6-0.6V73l-32.8,3.4v-2.6l5.3-0.6l-14.3-26.6v28.1l5.8-0.6v2.6l-31.1,3.3v-2.6l5.9-0.6V23.3
		l-5.9,0.6v-2.6l31.1-3.3v2.6l-5.8,0.6v24.3l19.4-22c1.2-1.4,1.9-2.6,1.9-3.3c0-0.9-1.1-1.1-3.9-0.8l-5.1,0.5v-2.6l24.7-2.6v2.6
		l-3.4,0.4c-5.5,0.7-6.1,1.1-10.5,6.2l-7.8,8.8L373.7,71z"/>
	<path class="st1" d="M432.4,67.4l-2.9,0.3l-1.9-4.6c-6.9,5.7-10.6,7.4-18.2,8.2c-18.9,2-32.3-9.1-32.3-26.8
		c0-18.4,13.4-32.9,32.3-34.9c7.2-0.8,11.5,0.3,16.5,4l2.5-4.5l2.9-0.3l0.3,17.1l-2.9,0.3c-1.1-3.4-1.8-5-3-7.1
		c-2.9-4.8-8.2-7.4-13.8-6.8c-8.9,0.9-13.7,8.8-13.7,22.5v14.1c0,7,0.8,10.8,2.9,14.3c2.3,3.8,6.2,5.5,11.2,5c5.6-0.6,10-3.4,13.9-9
		c2.5-3.5,3.6-5.9,4.8-10.2l2.9-0.3L432.4,67.4z"/>
	<path class="st1" d="M477.4,47.5c0,10.5-1.5,15.5-5.9,20.2c-3.5,3.6-10,6.4-16.4,7.1c-10.3,1.1-17.5-3.4-17.5-11
		c0-4.9,3.6-8.8,8.6-9.4c4.7-0.5,8,2.7,8,7.6c0,2.4-0.9,4.8-2.5,6.5c-1.5,1.7-1.5,1.7-1.5,2.3c0,0.9,1.1,1.4,2.4,1.2
		c2.2-0.2,3.9-1.9,4.7-4.6c0.5-1.9,0.7-3.9,0.7-8.1V8.6l-5.9,0.6V6.6l31.2-3.3V6l-5.9,0.6V47.5z"/>
	<path class="st1" d="M497.8,44.7l-3.6,10c-0.2,0.6-0.4,1.3-0.4,1.7c0,1.4,1.1,1.8,3.7,1.5l2.4-0.2v2.6l-17.1,1.8v-2.6l2.1-0.2
		c3.7-0.5,5.2-1.9,6.8-6.3l19.8-52.7l6.7-0.7l23,53.7l5-0.5v2.6l-31.9,3.3v-2.6l6.2-0.6l-5.3-12.7L497.8,44.7z M514.1,40.4L506.3,22
		l-7.5,20L514.1,40.4z"/>
</g>
<g>
	<path class="st1" d="M105.6,119.6L87.8,175l-4,0.4l-17.3-51.7v42.5c-0.3,6.8,0.9,8.2,6.1,7.7l1.3-0.1v2.6l-17.6,1.8v-2.6l1.2-0.1
		c5.2-0.6,6.3-2.3,6.1-9v-45.1l-5.9,0.6v-2.6l27.2-2.9l9.6,28.5l9.7-30.5l26.6-2.8v2.6l-5.9,0.6v53.5l5.9-0.6v2.6l-32.3,3.4v-2.6
		l7-0.7V119.6z"/>
	<path class="st1" d="M149.2,152.7l-3.6,10c-0.2,0.6-0.4,1.3-0.4,1.7c0,1.4,1.1,1.8,3.7,1.5l2.4-0.2v2.6l-17.1,1.8v-2.6l2.1-0.2
		c3.7-0.5,5.2-1.9,6.8-6.3l19.8-52.7l6.7-0.7l23,53.7l5-0.5v2.6l-31.9,3.3v-2.6l6.2-0.6l-5.3-12.7L149.2,152.7z M165.6,148.3
		l-7.8-18.4l-7.5,20L165.6,148.3z"/>
	<path class="st1" d="M207.8,109.8v41.6c-0.3,6.8,0.9,8.2,6.1,7.7l1.3-0.1v2.6l-17.6,1.8v-2.6l1.2-0.1c5.2-0.6,6.3-2.3,6.1-9v-39.9
		c0.1-4.3-0.4-5.1-3.8-4.8l-3.5,0.4v-2.6l29.3-3.1l20.4,30.5v-21.7c0.3-6.8-0.9-8.2-6.1-7.7l-1.3,0.1v-2.6l17.6-1.8v2.6l-1.2,0.1
		c-5.2,0.6-6.3,2.2-6.1,9v47.8l-9.4,1L207.8,109.8z"/>
	<path class="st1" d="M315.5,151.1l-2.9,0.3l-1.9-4.6c-6.9,5.7-10.6,7.4-18.2,8.2c-18.9,2-32.3-9.1-32.3-26.8
		c0-18.4,13.4-32.9,32.3-34.9c7.2-0.8,11.5,0.3,16.5,4l2.5-4.5l2.9-0.3l0.3,17.1l-2.9,0.3c-1.1-3.4-1.8-5-3-7.1
		c-2.9-4.8-8.2-7.4-13.8-6.8c-8.9,0.9-13.7,8.8-13.7,22.5v14.1c0,7,0.8,10.8,2.9,14.3c2.3,3.8,6.2,5.5,11.2,5c5.6-0.6,10-3.4,13.9-9
		c2.5-3.5,3.6-5.9,4.8-10.2l2.9-0.3L315.5,151.1z"/>
	<path class="st1" d="M347.5,145.1l5.8-0.6v2.6l-31.1,3.3v-2.6l5.9-0.6V93.6l-5.9,0.6v-2.6l31.1-3.3V91l-5.8,0.6v24.6l15.3-1.6V90
		l-5.9,0.6V88l31.1-3.3v2.6l-5.8,0.6v53.5l5.8-0.6v2.6l-31.1,3.3v-2.6l5.9-0.6v-26.3l-15.3,1.6V145.1z"/>
	<path class="st1" d="M399.8,86.1l-5.9,0.6v-2.6l52.7-5.5v15.2l-3,0.3c-2-8.6-8.1-12-18.9-10.6l-5.6,0.6v25.4l3-0.3
		c6.8-0.8,9.8-4.4,9.8-11.6l3-0.3v24l-3,0.3c-0.5-7.8-3.3-10.5-10-9.7l-2.7,0.3v25.5l7.8-0.8c11-0.8,16.7-6.5,18.7-18.9l2.9-0.3
		v19.6l-54.7,5.7v-2.6l5.9-0.6V86.1z"/>
	<path class="st1" d="M498.5,89.1l-2.9,0.3c-1.1-3.2-1.9-5-3.5-6.9c-3.5-4.3-9.2-6.4-15.2-5.8c-5.7,0.6-9.3,3.5-9.3,7.6
		c0,3.7,2.6,5.8,8.7,7.1l10.7,2.3c10.9,2.3,15.2,6.9,15.2,16.3c0,13.5-9.3,23.9-22.6,25.3c-6.9,0.7-11.9-0.8-17.1-5l-2.8,5.6
		l-2.9,0.3v-18.7l2.9-0.3c1.1,3.5,1.9,5.2,3.2,7.2c3.6,5.6,10,8.6,16.9,7.9c7-0.7,11.6-4.9,11.6-10.3c0-4.3-2.6-6.7-8.6-8.1l-11-2.5
		c-10.6-2.5-15.4-7.4-15.4-15.3c0-4.8,1.8-10,5-14c3.9-4.9,9.1-7.6,15.7-8.3c6.8-0.7,11.6,0.6,15.9,4.6l2.6-5l2.9-0.3V89.1z"/>
	<path class="st1" d="M542.2,124.7l8.4-0.9v2.6l-36.1,3.8v-2.6l8.4-0.9V73.2l-2.6,0.3c-6.2,0.8-10,6.4-11.9,17.4l-2.9,0.3l1.1-18.9
		l52.2-5.5l1.1,18.7l-3,0.3c-1.8-10.6-5.6-15.4-11.8-14.9l-2.6,0.3V124.7z"/>
	<path class="st1" d="M569.7,68.3l-5.9,0.6v-2.6l52.7-5.5V76l-3,0.3c-2-8.6-8.1-12-18.9-10.6l-5.6,0.6v25.4l3-0.3
		c6.8-0.8,9.8-4.4,9.8-11.6l3-0.3v24l-3,0.3c-0.5-7.8-3.3-10.5-10-9.7l-2.7,0.3v25.5l7.8-0.8c11-0.8,16.7-6.5,18.7-18.9l2.9-0.3
		v19.6l-54.7,5.7v-2.6l5.9-0.6V68.3z"/>
	<path class="st1" d="M650,113.3l6.2-0.6v2.6l-31.5,3.3V116l5.9-0.6V61.9l-5.9,0.6v-2.6l33-3.5c10-1,12.9-1,16.8,0.2
		c4.7,1.4,7.6,5.5,7.6,11.1c0,5.3-2.7,9.9-7.3,12.5c-2.8,1.6-4.8,2.3-10.6,3.6c11.2,0.4,16,4.6,16,14v3.5c0.1,5.1,0.1,5.5,0.5,6.3
		c0.5,1.2,1.5,1.7,2.7,1.6c1-0.1,1.8-0.4,3.5-1.3l1.1,1.6c-4.7,3.5-8.3,5-12.8,5.5c-4.5,0.5-8.6-0.6-11-2.9
		c-2.5-2.2-3.5-5.9-3.5-11.6v-5c0-7.6-1.9-10-7.2-9.5l-3.6,0.4V113.3z M654.4,83.1c6.4-0.7,8.4-3.6,8.4-12.7c0-9.2-1.9-11.7-8.4-11
		l-4.5,0.5v23.7L654.4,83.1z"/>
	<path class="st1" d="M739,87.4c0,5.3,0.6,8.8,2,11.2c1.8,3.1,5.9,4.8,10.4,4.3c4.7-0.5,8.6-2.9,10.8-6.7c1.6-2.8,2.1-5.4,2.1-10.6
		V56.2c0.2-6.8-0.9-8.2-6.1-7.7l-1.3,0.1V46l17.6-1.8v2.6l-1.3,0.1c-5.2,0.6-6.3,2.2-6,9v29.4c0,7.4-1.3,11.6-4.8,15.1
		c-4,4-9.7,6.2-18.9,7.2c-9.2,1-15.2-0.2-19.2-3.4c-3.4-2.9-4.7-6.8-4.7-14.8V52.6l-5.9,0.6v-2.6l32-3.4v2.6l-6.7,0.7V87.4z"/>
	<path class="st1" d="M786.1,49.1v41.6c-0.3,6.8,0.9,8.2,6.1,7.7l1.3-0.1v2.6l-17.6,1.8v-2.6l1.2-0.1c5.2-0.6,6.3-2.3,6.1-9V51.1
		c0.1-4.3-0.4-5.1-3.8-4.8l-3.5,0.4V44l29.3-3.1l20.4,30.5V49.8c0.3-6.8-0.9-8.2-6.1-7.7l-1.3,0.1v-2.6l17.6-1.8v2.6l-1.2,0.1
		c-5.2,0.6-6.3,2.2-6.1,9v47.8l-9.4,1L786.1,49.1z"/>
	<path class="st1" d="M845.3,39.4l-5.9,0.6v-2.6l31.1-3.3v2.6l-5.8,0.6v53.5l5.8-0.6v2.6l-31.1,3.3v-2.6l5.9-0.6V39.4z"/>
	<path class="st1" d="M911.6,85.9L920,85v2.6l-36.1,3.8v-2.6l8.4-0.9V34.4l-2.6,0.3c-6.2,0.8-10,6.4-11.9,17.4l-2.9,0.3l1.1-18.9
		l52.2-5.5l1.1,18.7l-3,0.3c-1.8-10.6-5.6-15.4-11.8-14.9l-2.6,0.3V85.9z"/>
	<path class="st1" d="M939.1,29.5l-5.9,0.6v-2.6l52.7-5.5v15.2l-3,0.3c-2-8.6-8.1-12-18.9-10.6l-5.5,0.6v25.4l3-0.3
		c6.8-0.8,9.8-4.4,9.8-11.6l3-0.3v24l-3,0.3c-0.5-7.8-3.3-10.5-10-9.7l-2.7,0.3V81l7.8-0.8c11-0.8,16.7-6.5,18.7-18.9l2.9-0.3v19.6
		l-54.7,5.7v-2.6l5.9-0.6V29.5z"/>
	<path class="st1" d="M1000,23.1l-5.9,0.6v-2.6l27.9-2.9c13.5-1.4,18.6-0.9,24.3,2.4c7.3,4.3,11.5,12.6,11.5,23.3
		c0,8.7-2.9,16.3-8.4,22c-6.3,6.6-14,9.7-27.1,11l-28.2,3v-2.6l5.9-0.6V23.1z M1022.3,74.3c11.4-1.1,14.7-6.7,14.5-24.2V38.9
		c-0.1-15.4-3.5-19.6-14.7-18.1l-2.7,0.3v53.5L1022.3,74.3z"/>
</g>
</svg>
