<?xml version="1.0" encoding="utf-8"?>
<!-- Generator: Adobe Illustrator 25.2.1, SVG Export Plug-In . SVG Version: 6.00 Build 0)  -->
<svg version="1.0" xmlns="http://www.w3.org/2000/svg" xmlns:xlink="http://www.w3.org/1999/xlink" x="0px" y="0px"
	 viewBox="0 0 110 110" style="enable-background:new 0 0 110 110;" xml:space="preserve">
<style type="text/css">
	.st0{display:none;}
	.st1{display:inline;fill:#212121;}
	.st2{fill:none;stroke:#FFFFFF;stroke-width:2.8346;stroke-linecap:round;stroke-linejoin:round;stroke-miterlimit:10;}
	.st3{fill:#E52A18;}
	.st4{display:inline;}
	.st5{fill:none;stroke:#FFFFFF;stroke-width:2.8346;stroke-miterlimit:10;}
	.st6{fill:none;stroke:#FFFFFF;stroke-width:2.8346;stroke-linecap:round;stroke-miterlimit:10;}
	.st7{fill-rule:evenodd;clip-rule:evenodd;fill:none;stroke:#FFFFFF;stroke-width:2.8346;stroke-miterlimit:10;}
</style>
<g id="Warstwa_2" class="st0">
	<rect class="st1" width="110" height="110"/>
</g>
<g id="Warstwa_1">
	<g>
		<g>
			<path class="st2" d="M75.4,87.9H34.6c-1.6,0-2.8-1.3-2.8-2.8V24.9c0-1.6,1.3-2.8,2.8-2.8h40.9c1.6,0,2.8,1.3,2.8,2.8v60.2
				C78.3,86.7,77,87.9,75.4,87.9z"/>
			<line class="st2" x1="39.6" y1="32.7" x2="70.6" y2="32.7"/>
			<line class="st2" x1="39.6" y1="39.6" x2="54.9" y2="39.6"/>
			<line class="st2" x1="39.6" y1="46.6" x2="65.9" y2="46.6"/>
			<g>
				<circle class="st2" cx="55" cy="63.2" r="4.4"/>
				<g>
					<polyline class="st2" points="54.1,68.4 50.4,79 48.3,74.9 44.1,76.4 50.6,64.6 					"/>
					<polyline class="st2" points="55.9,68.4 59.6,79 61.7,74.9 65.9,76.4 59.4,64.6 					"/>
				</g>
			</g>
		</g>
		<g>
			<path class="st3" d="M55,2.8c28.8,0,52.2,23.4,52.2,52.2S83.8,107.2,55,107.2S2.8,83.8,2.8,55S26.2,2.8,55,2.8 M55,0
				C24.6,0,0,24.6,0,55s24.6,55,55,55s55-24.6,55-55S85.4,0,55,0L55,0z"/>
		</g>
	</g>
</g>
<g id="Warstwa_3" class="st0">
	<g class="st4">
		<g>
			<path class="st3" d="M55,2.8c28.8,0,52.2,23.4,52.2,52.2S83.8,107.2,55,107.2S2.8,83.8,2.8,55S26.2,2.8,55,2.8 M55,0
				C24.6,0,0,24.6,0,55s24.6,55,55,55s55-24.6,55-55S85.4,0,55,0L55,0z"/>
		</g>
		<g>
			<path class="st5" d="M39.1,41.9h-7.5c-0.7,0-1.3-0.6-1.3-1.3v-7.5c0-0.7,0.6-1.3,1.3-1.3h7.5c0.7,0,1.3,0.6,1.3,1.3v7.5
				C40.5,41.3,39.9,41.9,39.1,41.9z"/>
			<path class="st5" d="M39.1,61.7h-7.5c-0.7,0-1.3-0.6-1.3-1.3v-7.5c0-0.7,0.6-1.3,1.3-1.3h7.5c0.7,0,1.3,0.6,1.3,1.3v7.5
				C40.5,61.1,39.9,61.7,39.1,61.7z"/>
			<path class="st5" d="M39.1,81.4h-7.5c-0.7,0-1.3-0.6-1.3-1.3v-7.5c0-0.7,0.6-1.3,1.3-1.3h7.5c0.7,0,1.3,0.6,1.3,1.3V80
				C40.5,80.8,39.9,81.4,39.1,81.4z"/>
			<polyline class="st2" points="31.4,31.7 35.6,38 42.1,28.6 			"/>
			<g>
				<line class="st6" x1="49.4" y1="33.7" x2="79.7" y2="33.7"/>
				<line class="st6" x1="49.4" y1="40" x2="69.3" y2="40"/>
			</g>
			<g>
				<line class="st6" x1="49.4" y1="53.4" x2="64.6" y2="53.4"/>
				<line class="st6" x1="49.4" y1="59.7" x2="76.8" y2="59.7"/>
			</g>
			<g>
				<line class="st6" x1="49.4" y1="73.1" x2="75.1" y2="73.1"/>
				<line class="st6" x1="49.4" y1="79.4" x2="76.8" y2="79.4"/>
			</g>
		</g>
	</g>
</g>
<g id="Warstwa_4" class="st0">
	<g class="st4">
		<g>
			<path class="st3" d="M55,2.8c28.8,0,52.2,23.4,52.2,52.2S83.8,107.2,55,107.2S2.8,83.8,2.8,55S26.2,2.8,55,2.8 M55,0
				C24.6,0,0,24.6,0,55s24.6,55,55,55s55-24.6,55-55S85.4,0,55,0L55,0z"/>
		</g>
		<path class="st7" d="M70.9,33l3.5-3.5c-3.4-1.2-7.4-0.4-10.1,2.4c-2.3,2.3-3.2,5.5-2.8,8.5c0.2,1.1-0.2,2.3-1,3.1
			c-3.7,3.7-13.3,13.3-17,17c-0.8,0.8-1.9,1.2-3.1,1c-3-0.5-6.2,0.5-8.5,2.8c-2.7,2.7-3.5,6.7-2.4,10.1l3.5-3.5c0.7-0.7,2-0.7,2.7,0
			l3.5,3.5c0.7,0.7,0.7,2,0,2.7l-3.5,3.5c3.4,1.2,7.4,0.4,10.1-2.4c2.3-2.3,3.2-5.5,2.8-8.5c-0.2-1.1,0.2-2.3,1-3.1
			c3.7-3.7,13.3-13.3,17-17c0.8-0.8,1.9-1.2,3.1-1c3,0.5,6.2-0.5,8.5-2.8c2.7-2.7,3.5-6.7,2.4-10.1L77,39.1c-0.7,0.7-2,0.7-2.7,0
			l-3.5-3.5C70.1,34.9,70.1,33.7,70.9,33z"/>
		<g>
			<path class="st7" d="M84.9,79.2l-5.7,5.7c-0.7,0.7-1.8,0.7-2.5,0l-14-14c-0.7-0.7-0.7-1.8,0-2.5l5.7-5.7c0.7-0.7,1.8-0.7,2.5,0
				l14,14C85.6,77.4,85.6,78.5,84.9,79.2z"/>
			<polyline class="st7" points="55.7,58.6 64,66.9 66.9,64 58.6,55.7 			"/>
			<polyline class="st7" points="52.4,49.5 41.2,38.3 41.3,34.3 31.5,28.1 28.1,31.5 34.3,41.3 38.3,41.2 49.5,52.4 			"/>
		</g>
	</g>
</g>
<g id="Warstwa_5" class="st0">
	<g class="st4">
		<g>
			<path class="st3" d="M55,2.8c28.8,0,52.2,23.4,52.2,52.2S83.8,107.2,55,107.2S2.8,83.8,2.8,55S26.2,2.8,55,2.8 M55,0
				C24.6,0,0,24.6,0,55s24.6,55,55,55s55-24.6,55-55S85.4,0,55,0L55,0z"/>
		</g>
		<g>
			<path class="st2" d="M54.3,16.3L54.3,16.3c-6.2,0-11.2,5-11.2,11.2v6.7c0,6.2,5,11.2,11.2,11.2h0c6.2,0,11.2-5,11.2-11.2v-6.7
				C65.5,21.3,60.5,16.3,54.3,16.3z"/>
			<g>
				<line class="st2" x1="48.5" y1="44.2" x2="48.5" y2="49.5"/>
				<line class="st2" x1="60.1" y1="44.2" x2="60.1" y2="49.5"/>
			</g>
			<line class="st2" x1="43.1" y1="27.4" x2="73.7" y2="27.4"/>
			<polyline class="st2" points="48.5,49.5 54.3,55.3 60.1,49.5 			"/>
			<g>
				<path class="st2" d="M48.5,49.5L48.5,49.5c-9,0-16.3,7.3-16.3,16.3v12.4"/>
				<polyline class="st2" points="54.3,55.3 49.5,60.7 42.2,50.7 				"/>
				<path class="st2" d="M60.2,49.5L60.2,49.5c5.9,0,11.1,3.2,14,7.9"/>
				<polyline class="st2" points="54.4,55.3 59.2,60.7 66.5,50.7 				"/>
			</g>
			<line class="st2" x1="54.4" y1="55.3" x2="54.4" y2="64.2"/>
			<line class="st2" x1="39.8" y1="64.1" x2="44.7" y2="64.1"/>
			<g>
				<path class="st2" d="M83.5,84.6V70.9c0-0.8-0.4-1.6-1.1-2L70.5,62c-0.7-0.4-1.6-0.4-2.3,0l-11.9,6.9c-0.7,0.4-1.1,1.2-1.1,2
					v13.7c0,0.8,0.4,1.6,1.1,2l11.9,6.9c0.7,0.4,1.6,0.4,2.3,0l11.9-6.9C83.1,86.2,83.5,85.4,83.5,84.6z"/>
				<line class="st2" x1="56.1" y1="70.1" x2="69.4" y2="77.7"/>
				<line class="st2" x1="62.3" y1="65.5" x2="76.3" y2="73.6"/>
				<line class="st2" x1="69.4" y1="77.7" x2="82" y2="70.5"/>
				<line class="st2" x1="69.4" y1="92.8" x2="69.4" y2="77.7"/>
				<line class="st2" x1="76.3" y1="73.6" x2="76.3" y2="81.2"/>
			</g>
		</g>
	</g>
</g>
</svg>
